<svg preserveAspectRatio="none" width="100%" height="100%" overflow="visible" style="display: block;" viewBox="0 0 813 106" fill="none" xmlns="http://www.w3.org/2000/svg">
<g id="logo" clip-path="url(#clip0_0_7)">
<path id="Vector" d="M338.221 0.425387C364.985 0.116875 392.319 0.400092 419.131 0.396889C424.831 9.58157 430.635 18.7024 436.541 27.7576L436.52 0.428345C457.161 0.204835 478.297 0.403501 498.97 0.400831L498.991 76.2149L499.003 96.8761C499.007 99.6832 499.172 105.686 498.76 108.059L418.336 108.064C412.739 99.9715 406.251 88.9918 400.832 80.5073C400.671 89.5577 400.799 98.9777 400.794 108.057L338.228 108.062L338.221 0.425387Z" fill="var(--fill-0, #FF5D00)"/>
<path id="Vector_2" d="M4.99463 0.426589L67.3516 0.416119L67.3389 26.5112C72.3284 17.8505 77.2574 9.15546 82.1258 0.426424C107.773 0.0826389 134.812 0.314321 160.474 0.443959L118.998 49.0408C125.965 59.8664 135.259 72.4643 142.737 83.2054C147.285 88.9444 155.603 101.666 160.057 108.068L82.7445 108.088C77.6646 99.906 72.5255 91.7606 67.3277 83.6521L67.3525 108.055L5.00646 108.06L4.99463 0.426589Z" fill="var(--fill-0, #FF5D00)"/>
<path id="Vector_3" d="M209.391 0.412995L289.692 0.39624C294.947 11.1304 301.27 27.0334 306.17 38.4105L336.103 108.058L278.54 108.059L270.864 108.062L267.405 97.0133L231.307 97.0187L227.836 108.057L162.658 108.06C177.453 72.4281 194.043 35.996 209.391 0.412995Z" fill="var(--fill-0, #FF5D00)"/>
<path id="Vector_4" d="M249.228 41.8853C250.44 43.3414 254.856 58.2717 255.684 60.97L250.46 60.9819L243 60.9934L249.228 41.8853Z" fill="var(--fill-0, #181818)"/>
<path id="Vector_5" d="M685.706 0.419117L812.828 0.404785L812.824 32.9367L744.876 32.9359L744.896 38.1095L812.836 38.0984L812.824 70.4217L775.19 70.4147L744.913 70.4127L744.88 75.5514L812.832 75.5452L812.824 108.057L685.739 108.06L685.706 0.419117Z" fill="var(--fill-0, #FF5D00)"/>
<path id="Vector_6" d="M501.579 0.42957L578.17 0.399306L592.621 16.2723L606.622 0.444311C631.157 -0.166265 658.446 0.340543 683.196 0.440451L638.725 49.1034C633.746 54.5403 628.573 60.0712 623.743 65.6156V108.058L561.173 108.059L561.165 65.7223C556.396 59.7427 547.246 50.3542 541.876 44.4821L501.579 0.42957Z" fill="var(--fill-0, #FF5D00)"/>
<path id="Vector_7" d="M643.444 170.183L650.401 170.193L650.413 215.409L641.787 215.471L641.75 192.577C638.082 198.913 633.523 208.713 630.209 215.434L623.236 215.463L623.269 170.181L631.751 170.191L631.78 193.439C635.485 185.738 639.594 177.844 643.444 170.183Z" fill="var(--fill-0, #FF5D00)"/>
<path id="Vector_8" d="M321.98 170.184L328.809 170.189C330.86 173.722 333.555 179.552 335.468 183.357C337.684 178.985 339.877 174.6 342.046 170.205L348.943 170.193L348.929 215.431L340.486 215.461L340.476 204.794C340.5 200.713 340.464 196.632 340.368 192.552L335.503 202.105C333.987 199.539 332.151 195.603 330.613 192.77C330.317 199.904 330.514 208.218 330.52 215.44L321.955 215.472L321.98 170.184Z" fill="var(--fill-0, #FF5D00)"/>
<path id="Vector_9" d="M214.035 170.184L220.819 170.198L220.796 215.413L212.376 215.462L212.338 192.48C208.421 199.988 204.613 207.834 200.817 215.423L194.034 215.46L194.04 170.183L202.373 170.202L202.415 193.135C206.27 186.113 210.361 177.45 214.035 170.184Z" fill="var(--fill-0, #FF5D00)"/>
<path id="Vector_10" d="M311.962 170.182L318.732 170.191L318.722 215.419L310.414 215.466C310.435 207.786 310.407 200.105 310.331 192.425C306.293 199.597 302.617 207.985 298.569 215.427L291.897 215.463C291.878 200.411 291.765 185.231 291.935 170.189L300.447 170.192C300.464 177.821 300.576 185.724 300.333 193.323L311.962 170.182Z" fill="var(--fill-0, #FF5D00)"/>
<path id="Vector_11" d="M593.293 170.182L601.903 170.2V188.544L611.856 188.547L611.873 170.187L620.441 170.202L620.458 215.43L611.881 215.464L611.868 197.106L601.903 197.113V215.435L593.276 215.469L593.293 170.182Z" fill="var(--fill-0, #FF5D00)"/>
<path id="Vector_12" d="M563.49 170.187L590.424 170.189L590.412 178.657L572.034 178.659L572.038 188.543L590.424 188.55L590.416 197.088L572.021 197.105L572.034 206.96L590.42 206.94V215.433L563.469 215.466L563.49 170.187Z" fill="var(--fill-0, #FF5D00)"/>
<path id="Vector_13" d="M382.232 170.181L409.124 170.196L409.141 178.65L390.812 178.664L390.809 188.543L409.128 188.553L409.141 197.081L390.805 197.118L390.799 206.952L409.12 206.958L409.136 215.439L382.211 215.467L382.232 170.181Z" fill="var(--fill-0, #FF5D00)"/>
<path id="Vector_14" d="M499.131 170.186L507.622 170.207C507.791 185.185 507.65 200.433 507.663 215.434L499.148 215.465L499.143 197.105L489.103 197.113L489.107 215.443L480.642 215.466L480.671 170.189L489.099 170.2L489.107 188.544L499.119 188.548L499.131 170.186Z" fill="var(--fill-0, #FF5D00)"/>
<path id="Vector_15" d="M653.352 170.183L680.229 170.194L680.217 178.658L661.674 178.661L661.678 188.544L680.229 188.552L680.217 197.093L661.669 197.1L661.678 206.962L680.225 206.944L680.217 215.427L653.311 215.471L653.352 170.183Z" fill="var(--fill-0, #FF5D00)"/>
<path id="Vector_16" d="M352.178 170.181L378.965 170.198L378.972 178.66L360.517 178.665L360.505 188.537L378.972 188.55L378.977 197.096L360.504 197.139L360.489 206.936L378.973 206.947L378.975 215.44L352.17 215.47L352.178 170.181Z" fill="var(--fill-0, #FF5D00)"/>
<path id="Vector_17" d="M251.34 170.211L259.803 170.214L259.794 188.538C264.101 188.452 267.874 188.331 271.684 190.697C279.881 195.788 280.306 204.726 274.114 211.634C268.029 217.059 259.622 215.515 251.293 215.472C251.688 200.996 251.333 184.826 251.34 170.211Z" fill="var(--fill-0, #FF5D00)"/>
<path id="Vector_18" d="M259.795 197.082C265.268 196.869 273.355 197.757 268.388 205.518C265.44 207.472 263.351 207.013 259.79 206.964L259.795 197.082Z" fill="var(--fill-0, #181818)"/>
<path id="Vector_19" d="M464.118 170.239C467.465 170.218 470.227 170.797 473.021 172.72C475.89 174.721 477.835 177.781 478.424 181.219C479.244 185.843 477.79 189.106 475.214 192.769C479.409 198.811 480.349 205.743 474.752 211.323C472.164 213.929 468.636 215.397 464.951 215.399C461.41 215.396 458.018 213.981 455.529 211.47C451.795 207.666 451.527 203.605 451.564 198.68L460.162 198.683C459.675 211.493 470.095 206.973 470.095 201.424C470.099 200.393 469.678 199.404 468.936 198.687C466.851 196.682 464.436 196.991 461.736 197.044L461.732 188.555C481.829 189.141 459.795 166.992 460.153 186.973L451.564 186.98C451.494 177.726 454.264 171.743 464.118 170.239Z" fill="var(--fill-0, #FF5D00)"/>
<path id="Vector_20" d="M520.843 170.178L527.553 170.179L538.715 215.441L529.828 215.467C529.589 213.881 529.627 211.766 528.176 211.021L519.623 211.017L518.346 215.434L509.62 215.469L520.843 170.178Z" fill="var(--fill-0, #FF5D00)"/>
<path id="Vector_21" d="M524.149 192.979C525.068 194.045 526.511 200.835 526.218 202.23L525.287 202.689L522.83 202.473L522.228 201.713C521.89 198.915 523.259 195.798 524.149 192.979Z" fill="var(--fill-0, #181818)"/>
<path id="Vector_22" d="M147.854 170.579C148.99 170.446 150.133 170.38 151.277 170.38C161.268 170.386 164.657 178.304 164.545 186.971L155.968 186.981C155.99 184.937 156.274 181.839 154.774 180.391C150.131 175.319 145.558 181.251 145.903 186.214C146.295 191.865 144.301 201.116 148.106 205.861C149.813 207.989 153.073 206.918 154.687 205.318C156.253 203.764 155.969 200.758 155.963 198.667L164.543 198.672C164.803 209.471 157.615 218.734 145.54 214.539C135.945 211.206 137.479 195.846 137.456 187.854C137.432 179.361 138.891 173.778 147.854 170.579Z" fill="var(--fill-0, #FF5D00)"/>
<path id="Vector_23" d="M232.802 170.18L239.315 170.179C243.377 184.72 246.732 200.615 250.629 215.403L241.851 215.476C240.11 208.675 238.432 201.859 236.816 195.028L236.177 193.329C235.328 194.037 230.96 212.775 230.304 215.44L221.505 215.446C225.588 201.934 229.061 184.302 232.802 170.18Z" fill="var(--fill-0, #FF5D00)"/>
<path id="Vector_24" d="M533.509 170.185L541.979 170.197C542.041 172.797 541.991 175.874 541.859 178.447C541.377 187.696 543.586 188.744 552.011 188.546L552.044 170.189L560.468 170.201L560.472 196.992L560.493 215.44L552.044 215.467L552.04 197.111C551.112 197.12 550.185 197.122 549.253 197.118C531.325 197.018 533.336 183.256 533.509 170.185Z" fill="var(--fill-0, #FF5D00)"/>
<path id="Vector_25" d="M411.906 170.178L438.717 170.198L438.705 178.654L429.592 178.664L429.6 206.436L429.596 215.44L420.986 215.46L420.99 178.663L411.873 178.669L411.906 170.178Z" fill="var(--fill-0, #FF5D00)"/>
<path id="Vector_26" d="M164.404 170.192L191.207 170.193L191.19 178.66L182.105 178.662L182.124 206.025L182.112 215.441L173.552 215.471C173.408 203.298 173.541 190.852 173.546 178.659L164.431 178.668L164.404 170.192Z" fill="var(--fill-0, #FF5D00)"/>
<path id="Vector_27" d="M714.479 170.184L723.151 170.204C722.924 177.556 722.149 184.814 721.758 192.162L721.556 192.414C720.505 192.974 717.558 192.771 716.206 192.753C715.588 185.184 715.213 177.771 714.479 170.184Z" fill="var(--fill-0, #FF5D00)"/>
<path id="Vector_28" d="M116.481 170.177L125.06 170.198C124.993 177.372 123.868 184.752 123.721 192.159L123.507 192.407C122.466 192.959 119.498 192.762 118.158 192.746L116.481 170.177Z" fill="var(--fill-0, #FF5D00)"/>
<path id="Vector_29" d="M703.635 170.179L712.217 170.195C711.784 177.412 711.297 184.626 710.758 191.836L710.543 192.41C709.41 192.998 706.826 192.782 705.42 192.753C704.493 185.646 704.167 177.436 703.635 170.179Z" fill="var(--fill-0, #FF5D00)"/>
<path id="Vector_30" d="M692.639 170.184L701.236 170.195C701.047 177.541 700.025 184.711 699.885 192.153C699.097 193.087 695.615 192.77 694.32 192.752C693.723 185.216 693.29 177.727 692.639 170.184Z" fill="var(--fill-0, #FF5D00)"/>
<path id="Vector_31" d="M94.641 170.189L103.181 170.195C102.893 177.577 102.039 184.756 101.8 192.143L101.602 192.391C100.422 192.976 97.693 192.769 96.2418 192.746C96.0197 185.845 95.1546 177.194 94.641 170.189Z" fill="var(--fill-0, #FF5D00)"/>
<path id="Vector_32" d="M105.609 170.186L114.104 170.195C113.903 177.176 113.145 185.138 112.661 192.202C111.862 193.055 108.596 192.764 107.348 192.746C106.485 185.491 106.061 177.478 105.609 170.186Z" fill="var(--fill-0, #FF5D00)"/>
</g>
<defs>
<clipPath id="clip0_0_7">
<rect width="813" height="106" fill="white"/>
</clipPath>
</defs>
</svg>
