<svg preserveAspectRatio="none" width="100%" height="100%" overflow="visible" style="display: block;" viewBox="0 0 437 57" fill="none" xmlns="http://www.w3.org/2000/svg">
<g id="image 4 [Vectorized]" clip-path="url(#clip0_0_219)">
<path id="Vector" d="M181.261 0.2288C195.647 0.0629024 210.34 0.215198 224.752 0.213476C227.816 5.15241 230.935 10.057 234.11 14.9263L234.099 0.230391C245.194 0.110201 256.554 0.217031 267.667 0.215596L267.678 40.9835L267.684 52.0938C267.687 53.6033 267.775 56.8314 267.554 58.1074L224.324 58.1101C221.316 53.7583 217.829 47.8542 214.916 43.2917C214.829 48.1584 214.898 53.2239 214.896 58.1061L181.265 58.109L181.261 0.2288Z" fill="var(--fill-0, #FF5D00)"/>
<path id="Vector_2" d="M2.14718 0.229331L35.665 0.223701L35.6582 14.2559C38.3401 9.59881 40.9896 4.92316 43.6064 0.229243C57.3922 0.044377 71.9258 0.168961 85.7196 0.238672L63.4257 26.3709C67.1704 32.1922 72.1661 38.9666 76.186 44.7424C78.6307 47.8285 83.1014 54.6691 85.4958 58.1119L43.9389 58.1227C41.2084 53.723 38.446 49.3429 35.6522 44.9827L35.6655 58.1052L2.15353 58.1079L2.14718 0.229331Z" fill="var(--fill-0, #FF5D00)"/>
<path id="Vector_3" d="M112.013 0.222066L155.176 0.213056C158.001 5.98521 161.4 14.5368 164.034 20.6547L180.123 58.1066L149.182 58.1074L145.056 58.109L143.197 52.1675L123.794 52.1704L121.928 58.1059L86.8937 58.1079C94.8461 38.9472 103.764 19.3563 112.013 0.222066Z" fill="var(--fill-0, #FF5D00)"/>
<path id="Vector_4" d="M133.426 22.5232C134.078 23.3062 136.452 31.3348 136.897 32.7858L134.089 32.7922L130.079 32.7984L133.426 22.5232Z" fill="var(--fill-0, #F6F4F0)"/>
<path id="Vector_5" d="M368.04 0.225379L436.37 0.217672L436.368 17.7112L399.845 17.7108L399.856 20.4928L436.375 20.4869L436.368 37.8683L416.139 37.8645L399.865 37.8634L399.847 40.6267L436.372 40.6234L436.368 58.1059L368.058 58.1079L368.04 0.225379Z" fill="var(--fill-0, #FF5D00)"/>
<path id="Vector_6" d="M269.069 0.231009L310.238 0.214735L318.005 8.75022L325.531 0.238935C338.719 -0.0893935 353.388 0.183136 366.691 0.23686L342.787 26.4047C340.111 29.3283 337.33 32.3024 334.734 35.2839V58.1066L301.102 58.1072L301.097 35.3413C298.534 32.1258 293.616 27.0773 290.729 23.9197L269.069 0.231009Z" fill="var(--fill-0, #FF5D00)"/>
<path id="Vector_7" d="M345.323 91.5135L349.063 91.5191L349.07 115.833L344.433 115.866L344.413 103.555C342.441 106.963 339.991 112.233 338.21 115.846L334.461 115.862L334.479 91.5122L339.038 91.5179L339.054 104.019C341.045 99.8778 343.254 95.633 345.323 91.5135Z" fill="var(--fill-0, #FF5D00)"/>
<path id="Vector_8" d="M172.532 91.5138L176.202 91.5164C177.305 93.4163 178.753 96.5516 179.782 98.5977C180.973 96.2465 182.152 93.8888 183.318 91.525L187.025 91.5186L187.017 115.845L182.479 115.861L182.473 110.125C182.486 107.93 182.467 105.736 182.416 103.542L179.8 108.679C178.986 107.299 177.999 105.183 177.172 103.659C177.013 107.496 177.119 111.966 177.122 115.85L172.518 115.867L172.532 91.5138Z" fill="var(--fill-0, #FF5D00)"/>
<path id="Vector_9" d="M114.509 91.514L118.156 91.5215L118.144 115.835L113.618 115.862L113.598 103.503C111.492 107.54 109.445 111.76 107.405 115.841L103.759 115.861L103.762 91.5135L108.241 91.5239L108.264 103.856C110.336 100.08 112.535 95.4211 114.509 91.514Z" fill="var(--fill-0, #FF5D00)"/>
<path id="Vector_10" d="M167.147 91.5129L170.786 91.5177L170.781 115.839L166.315 115.864C166.326 111.734 166.311 107.604 166.27 103.474C164.1 107.33 162.124 111.841 159.948 115.843L156.361 115.862C156.351 107.768 156.291 99.6051 156.382 91.5166L160.957 91.5182C160.966 95.6207 161.027 99.8703 160.896 103.957L167.147 91.5129Z" fill="var(--fill-0, #FF5D00)"/>
<path id="Vector_11" d="M318.366 91.5131L322.994 91.5224V101.387L328.345 101.388L328.353 91.5158L332.959 91.5237L332.968 115.845L328.358 115.863L328.351 105.991L322.994 105.995V115.847L318.357 115.866L318.366 91.5131Z" fill="var(--fill-0, #FF5D00)"/>
<path id="Vector_12" d="M302.347 91.5155L316.824 91.5169L316.818 96.0705L306.939 96.0712L306.942 101.387L316.824 101.39L316.82 105.982L306.933 105.991L306.939 111.29L316.822 111.279V115.846L302.336 115.864L302.347 91.5155Z" fill="var(--fill-0, #FF5D00)"/>
<path id="Vector_13" d="M204.918 91.5127L219.373 91.5206L219.382 96.0665L209.53 96.0738L209.528 101.386L219.375 101.392L219.382 105.978L209.526 105.997L209.523 111.286L219.371 111.289L219.38 115.849L204.907 115.864L204.918 91.5127Z" fill="var(--fill-0, #FF5D00)"/>
<path id="Vector_14" d="M267.753 91.5149L272.317 91.5266C272.408 99.5805 272.332 107.78 272.339 115.847L267.762 115.863L267.76 105.99L262.363 105.995L262.365 115.851L257.815 115.864L257.83 91.5166L262.361 91.5226L262.365 101.387L267.746 101.389L267.753 91.5149Z" fill="var(--fill-0, #FF5D00)"/>
<path id="Vector_15" d="M350.649 91.5133L365.096 91.5195L365.089 96.0709L355.122 96.0723L355.124 101.387L365.096 101.391L365.089 105.984L355.12 105.988L355.124 111.291L365.094 111.281L365.089 115.843L350.627 115.867L350.649 91.5133Z" fill="var(--fill-0, #FF5D00)"/>
<path id="Vector_16" d="M188.764 91.5124L203.162 91.5213L203.166 96.0718L193.246 96.0747L193.24 101.383L203.166 101.39L203.169 105.985L193.239 106.008L193.231 111.277L203.166 111.283L203.168 115.85L188.759 115.866L188.764 91.5124Z" fill="var(--fill-0, #FF5D00)"/>
<path id="Vector_17" d="M134.562 91.5286L139.111 91.5303L139.106 101.384C141.421 101.337 143.449 101.272 145.497 102.545C149.903 105.282 150.131 110.089 146.803 113.803C143.532 116.721 139.013 115.89 134.536 115.867C134.749 108.083 134.558 99.3873 134.562 91.5286Z" fill="var(--fill-0, #FF5D00)"/>
<path id="Vector_18" d="M139.106 105.978C142.048 105.864 146.395 106.341 143.725 110.514C142.14 111.565 141.018 111.318 139.104 111.292L139.106 105.978Z" fill="var(--fill-0, #F6F4F0)"/>
<path id="Vector_19" d="M248.933 91.5438C250.732 91.5325 252.216 91.8437 253.719 92.8777C255.26 93.9535 256.306 95.599 256.623 97.4477C257.064 99.9345 256.282 101.689 254.897 103.659C257.152 106.908 257.658 110.635 254.649 113.636C253.258 115.038 251.361 115.827 249.381 115.828C247.478 115.826 245.654 115.065 244.316 113.715C242.309 111.669 242.165 109.486 242.185 106.838L246.806 106.839C246.545 113.727 252.146 111.297 252.146 108.313C252.148 107.758 251.922 107.227 251.523 106.841C250.402 105.763 249.104 105.929 247.653 105.958L247.65 101.393C258.453 101.708 246.609 89.7978 246.802 100.542L242.185 100.546C242.147 95.5697 243.636 92.3522 248.933 91.5438Z" fill="var(--fill-0, #FF5D00)"/>
<path id="Vector_20" d="M279.424 91.5109L283.031 91.5111L289.03 115.85L284.253 115.864C284.125 115.011 284.145 113.874 283.365 113.474L278.768 113.471L278.081 115.846L273.391 115.865L279.424 91.5109Z" fill="var(--fill-0, #FF5D00)"/>
<path id="Vector_21" d="M281.201 103.772C281.695 104.345 282.47 107.996 282.313 108.746L281.812 108.993L280.492 108.877L280.168 108.469C279.987 106.964 280.722 105.288 281.201 103.772Z" fill="var(--fill-0, #F6F4F0)"/>
<path id="Vector_22" d="M78.9362 91.7266C79.547 91.6551 80.1613 91.6193 80.7763 91.6193C86.1467 91.6224 87.9682 95.8801 87.9077 100.541L83.2977 100.546C83.3094 99.4474 83.4623 97.7811 82.6559 97.0025C80.1602 94.2755 77.7022 97.4652 77.8874 100.134C78.0983 103.173 77.0265 108.147 79.0718 110.699C79.9894 111.843 81.7416 111.267 82.6089 110.407C83.451 109.571 83.2983 107.955 83.2948 106.83L87.9068 106.833C88.0468 112.64 84.1829 117.621 77.6925 115.365C72.5352 113.573 73.3598 105.314 73.3474 101.016C73.3343 96.4485 74.1188 93.4466 78.9362 91.7266Z" fill="var(--fill-0, #FF5D00)"/>
<path id="Vector_23" d="M124.597 91.5118L128.098 91.5116C130.281 99.3306 132.085 107.878 134.179 115.83L129.461 115.869C128.525 112.212 127.623 108.547 126.754 104.873L126.411 103.96C125.955 104.341 123.607 114.417 123.254 115.85L118.525 115.853C120.719 108.587 122.586 99.1056 124.597 91.5118Z" fill="var(--fill-0, #FF5D00)"/>
<path id="Vector_24" d="M286.232 91.5144L290.784 91.5208C290.818 92.919 290.791 94.5738 290.72 95.9574C290.461 100.931 291.648 101.494 296.177 101.388L296.195 91.5169L300.723 91.523L300.725 105.929L300.736 115.85L296.195 115.864L296.192 105.993C295.694 105.998 295.195 106 294.695 105.997C285.058 105.944 286.139 98.5432 286.232 91.5144Z" fill="var(--fill-0, #FF5D00)"/>
<path id="Vector_25" d="M220.868 91.5109L235.28 91.5215L235.273 96.0685L230.375 96.0738L230.379 111.008L230.377 115.85L225.749 115.861L225.751 96.0734L220.851 96.0767L220.868 91.5109Z" fill="var(--fill-0, #FF5D00)"/>
<path id="Vector_26" d="M87.8319 91.5182L102.239 91.5189L102.23 96.072L97.3469 96.0731L97.3569 110.787L97.3505 115.85L92.7495 115.866C92.672 109.32 92.7435 102.628 92.7462 96.0712L87.8466 96.076L87.8319 91.5182Z" fill="var(--fill-0, #FF5D00)"/>
<path id="Vector_27" d="M383.506 91.5142L388.167 91.5246C388.045 95.4781 387.629 99.3812 387.418 103.332L387.31 103.468C386.745 103.769 385.161 103.66 384.434 103.65C384.102 99.5804 383.9 95.594 383.506 91.5142Z" fill="var(--fill-0, #FF5D00)"/>
<path id="Vector_28" d="M62.0729 91.5105L66.6843 91.5215C66.6482 95.3791 66.0436 99.3478 65.9645 103.331L65.8493 103.464C65.2899 103.761 63.6946 103.655 62.9742 103.646L62.0729 91.5105Z" fill="var(--fill-0, #FF5D00)"/>
<path id="Vector_29" d="M377.677 91.5113L382.29 91.5199C382.057 95.401 381.796 99.2802 381.506 103.157L381.39 103.466C380.781 103.782 379.392 103.666 378.637 103.65C378.138 99.8285 377.963 95.4138 377.677 91.5113Z" fill="var(--fill-0, #FF5D00)"/>
<path id="Vector_30" d="M371.767 91.5142L376.388 91.52C376.286 95.4701 375.737 99.3255 375.661 103.328C375.238 103.83 373.366 103.659 372.67 103.65C372.349 99.5971 372.117 95.5704 371.767 91.5142Z" fill="var(--fill-0, #FF5D00)"/>
<path id="Vector_31" d="M50.3335 91.5166L54.9238 91.5199C54.769 95.4895 54.3101 99.3498 54.1814 103.322L54.0751 103.455C53.4406 103.77 51.974 103.659 51.194 103.646C51.0745 99.9354 50.6095 95.2835 50.3335 91.5166Z" fill="var(--fill-0, #FF5D00)"/>
<path id="Vector_32" d="M56.2289 91.5149L60.7951 91.5197C60.687 95.2738 60.2796 99.5552 60.0193 103.354C59.5899 103.812 57.8346 103.656 57.1636 103.646C56.6997 99.7451 56.4719 95.4365 56.2289 91.5149Z" fill="var(--fill-0, #FF5D00)"/>
</g>
<defs>
<clipPath id="clip0_0_219">
<rect width="437" height="57" fill="white"/>
</clipPath>
</defs>
</svg>
