<svg preserveAspectRatio="none" width="100%" height="100%" overflow="visible" style="display: block;" viewBox="0 0 1201 162" fill="none" xmlns="http://www.w3.org/2000/svg">
<g id="image 4 [Vectorized]" clip-path="url(#clip0_0_476)">
<path id="Vector" d="M495.553 0.891178C535.318 0.430395 575.93 0.853397 615.768 0.848614C624.237 14.5666 632.859 28.1891 641.634 41.7137L641.604 0.895595C672.271 0.561768 703.674 0.858489 734.391 0.854502L734.421 114.088L734.44 144.947C734.446 149.139 734.691 158.105 734.078 161.65L614.586 161.657C606.27 149.57 596.631 133.171 588.578 120.499C588.339 134.016 588.529 148.086 588.523 161.646L495.564 161.654L495.553 0.891178Z" fill="var(--fill-0, #FF5D00)"/>
<path id="Vector_2" d="M0.453158 0.892651L93.1018 0.877013L93.0828 39.8517C100.496 26.9165 107.82 13.9298 115.053 0.892405C153.159 0.378939 193.332 0.724972 231.46 0.918595L169.836 73.5012C180.187 89.67 193.996 108.486 205.108 124.528C211.866 133.1 224.223 152.1 230.842 161.662L115.972 161.692C108.425 149.472 100.789 137.306 93.0663 125.196L93.103 161.644L0.470732 161.651L0.453158 0.892651Z" fill="var(--fill-0, #FF5D00)"/>
<path id="Vector_3" d="M304.14 0.872473L423.45 0.847449C431.258 16.8797 440.652 40.6319 447.933 57.6243L492.407 161.647L406.881 161.65L395.475 161.654L390.336 145.152L336.703 145.16L331.546 161.646L234.706 161.651C256.688 108.432 281.337 54.0181 304.14 0.872473Z" fill="var(--fill-0, #FF5D00)"/>
<path id="Vector_4" d="M363.329 62.8142C365.13 64.989 371.692 87.2885 372.922 91.3186L365.16 91.3364L354.076 91.3536L363.329 62.8142Z" fill="var(--fill-0, #F6F4F0)"/>
<path id="Vector_5" d="M1011.84 0.881675L1200.71 0.86027L1200.71 49.4489L1099.75 49.4476L1099.78 57.1748L1200.73 57.1582L1200.71 105.435L1144.79 105.425L1099.81 105.422L1099.76 113.097L1200.72 113.088L1200.71 161.646L1011.89 161.651L1011.84 0.881675Z" fill="var(--fill-0, #FF5D00)"/>
<path id="Vector_6" d="M738.267 0.897312L852.064 0.852111L873.534 24.5595L894.337 0.919328C930.791 0.00739075 971.336 0.764344 1008.11 0.913563L942.034 73.595C934.637 81.7153 926.952 89.9761 919.775 98.257V161.647L826.81 161.649L826.798 98.4165C819.713 89.4854 806.118 75.4632 798.139 66.6928L738.267 0.897312Z" fill="var(--fill-0, #FF5D00)"/>
<path id="Vector_7" d="M949.046 254.436L959.383 254.451L959.401 321.984L946.584 322.076L946.529 287.882C941.079 297.346 934.306 311.983 929.383 322.02L919.021 322.065L919.07 254.432L931.673 254.448L931.716 289.17C937.221 277.667 943.326 265.878 949.046 254.436Z" fill="var(--fill-0, #FF5D00)"/>
<path id="Vector_8" d="M471.423 254.436L481.569 254.444C484.617 259.721 488.62 268.429 491.463 274.112C494.756 267.581 498.014 261.033 501.237 254.468L511.484 254.45L511.462 322.016L498.919 322.062L498.903 306.129C498.938 300.034 498.885 293.939 498.743 287.845L491.514 302.113C489.262 298.28 486.534 292.402 484.249 288.17C483.81 298.826 484.102 311.243 484.11 322.03L471.386 322.077L471.423 254.436Z" fill="var(--fill-0, #FF5D00)"/>
<path id="Vector_9" d="M311.04 254.437L321.12 254.458L321.086 321.99L308.575 322.063L308.52 287.737C302.699 298.951 297.041 310.669 291.402 322.004L281.323 322.06L281.333 254.436L293.713 254.464L293.776 288.716C299.504 278.228 305.581 265.289 311.04 254.437Z" fill="var(--fill-0, #FF5D00)"/>
<path id="Vector_10" d="M456.538 254.434L466.597 254.447L466.582 321.999L454.238 322.069C454.269 310.597 454.228 299.127 454.115 287.656C448.116 298.367 442.654 310.895 436.64 322.01L426.726 322.065C426.697 299.582 426.53 276.91 426.782 254.444L439.429 254.449C439.454 265.843 439.621 277.647 439.26 288.997L456.538 254.434Z" fill="var(--fill-0, #FF5D00)"/>
<path id="Vector_11" d="M874.532 254.434L887.325 254.46V281.859L902.114 281.863L902.138 254.442L914.87 254.464L914.894 322.016L902.15 322.066L902.132 294.646L887.325 294.657V322.023L874.508 322.074L874.532 254.434Z" fill="var(--fill-0, #FF5D00)"/>
<path id="Vector_12" d="M830.252 254.441L870.27 254.445L870.252 267.093L842.946 267.094L842.952 281.858L870.27 281.869L870.258 294.621L842.928 294.646L842.946 309.364L870.264 309.335V322.019L830.221 322.07L830.252 254.441Z" fill="var(--fill-0, #FF5D00)"/>
<path id="Vector_13" d="M560.944 254.433L600.899 254.455L600.924 267.082L573.692 267.102L573.687 281.858L600.905 281.872L600.924 294.61L573.682 294.665L573.673 309.353L600.893 309.361L600.918 322.028L560.912 322.07L560.944 254.433Z" fill="var(--fill-0, #FF5D00)"/>
<path id="Vector_14" d="M734.629 254.439L747.244 254.472C747.496 276.842 747.287 299.617 747.306 322.021L734.654 322.068L734.648 294.645L719.73 294.657L719.737 322.034L707.158 322.068L707.201 254.444L719.724 254.461L719.737 281.859L734.611 281.864L734.629 254.439Z" fill="var(--fill-0, #FF5D00)"/>
<path id="Vector_15" d="M963.768 254.435L1003.7 254.452L1003.68 267.094L976.131 267.098L976.138 281.859L1003.7 281.871L1003.68 294.628L976.125 294.638L976.138 309.367L1003.69 309.34L1003.68 322.011L963.706 322.077L963.768 254.435Z" fill="var(--fill-0, #FF5D00)"/>
<path id="Vector_16" d="M516.29 254.433L556.089 254.457L556.099 267.096L528.68 267.104L528.662 281.848L556.1 281.867L556.108 294.632L528.661 294.695L528.639 309.328L556.101 309.344L556.105 322.03L516.278 322.074L516.29 254.433Z" fill="var(--fill-0, #FF5D00)"/>
<path id="Vector_17" d="M366.468 254.477L379.042 254.482L379.028 281.851C385.428 281.721 391.033 281.54 396.693 285.074C408.872 292.678 409.505 306.028 400.304 316.345C391.264 324.449 378.772 322.142 366.397 322.078C366.984 300.458 366.456 276.305 366.468 254.477Z" fill="var(--fill-0, #FF5D00)"/>
<path id="Vector_18" d="M379.029 294.61C387.161 294.293 399.177 295.62 391.797 307.211C387.417 310.129 384.313 309.443 379.022 309.371L379.029 294.61Z" fill="var(--fill-0, #FF5D00)"/>
<path id="Vector_19" d="M682.608 254.52C687.581 254.488 691.684 255.353 695.836 258.225C700.098 261.213 702.988 265.783 703.864 270.918C705.082 277.825 702.921 282.698 699.093 288.17C705.327 297.194 706.724 307.547 698.408 315.881C694.562 319.774 689.32 321.965 683.845 321.968C678.585 321.964 673.545 319.851 669.846 316.1C664.298 310.418 663.9 304.354 663.955 296.998L676.73 297.002C676.007 316.135 691.488 309.384 691.488 301.097C691.494 299.556 690.869 298.08 689.767 297.008C686.668 294.013 683.08 294.475 679.069 294.554L679.063 281.875C708.922 282.751 676.185 249.67 676.717 279.512L663.955 279.523C663.851 265.702 667.966 256.765 682.608 254.52Z" fill="var(--fill-0, #FF5D00)"/>
<path id="Vector_20" d="M766.889 254.428L776.859 254.429L793.442 322.031L780.239 322.07C779.884 319.701 779.939 316.543 777.783 315.43L765.077 315.424L763.178 322.02L750.214 322.073L766.889 254.428Z" fill="var(--fill-0, #FF5D00)"/>
<path id="Vector_21" d="M771.801 288.483C773.166 290.075 775.31 300.216 774.875 302.299L773.491 302.985L769.841 302.664L768.947 301.528C768.445 297.349 770.478 292.694 771.801 288.483Z" fill="var(--fill-0, #FF5D00)"/>
<path id="Vector_22" d="M212.71 255.027C214.398 254.829 216.096 254.729 217.796 254.729C232.641 254.738 237.676 266.564 237.509 279.51L224.766 279.524C224.798 276.472 225.221 271.844 222.992 269.681C216.093 262.107 209.299 270.966 209.811 278.379C210.394 286.819 207.431 300.635 213.085 307.722C215.621 310.902 220.464 309.302 222.862 306.912C225.19 304.591 224.768 300.102 224.758 296.978L237.506 296.985C237.893 313.114 227.213 326.95 209.272 320.684C195.017 315.706 197.296 292.765 197.262 280.828C197.226 268.143 199.394 259.805 212.71 255.027Z" fill="var(--fill-0, #FF5D00)"/>
<path id="Vector_23" d="M338.925 254.431L348.601 254.43C354.636 276.148 359.622 299.888 365.41 321.974L352.369 322.084C349.783 311.926 347.289 301.746 344.887 291.543L343.939 289.006C342.677 290.063 336.188 318.049 335.212 322.03L322.139 322.039C328.206 301.858 333.365 275.523 338.925 254.431Z" fill="var(--fill-0, #FF5D00)"/>
<path id="Vector_24" d="M785.708 254.438L798.292 254.456C798.384 258.339 798.31 262.936 798.114 266.779C797.398 280.592 800.68 282.157 813.197 281.862L813.246 254.445L825.763 254.462L825.769 294.476L825.8 322.03L813.246 322.07L813.24 294.654C811.862 294.667 810.484 294.671 809.1 294.665C782.462 294.515 785.45 273.961 785.708 254.438Z" fill="var(--fill-0, #FF5D00)"/>
<path id="Vector_25" d="M605.033 254.428L644.868 254.458L644.849 267.087L631.31 267.102L631.322 308.582L631.316 322.03L618.523 322.06L618.53 267.101L604.984 267.11L605.033 254.428Z" fill="var(--fill-0, #FF5D00)"/>
<path id="Vector_26" d="M237.299 254.449L277.123 254.45L277.097 267.097L263.6 267.1L263.628 307.969L263.61 322.031L250.892 322.076C250.678 303.895 250.876 285.307 250.883 267.094L237.34 267.108L237.299 254.449Z" fill="var(--fill-0, #FF5D00)"/>
<path id="Vector_27" d="M1054.59 254.437L1067.47 254.466C1067.14 265.447 1065.98 276.288 1065.4 287.263L1065.1 287.639C1063.54 288.475 1059.16 288.173 1057.15 288.146C1056.24 276.841 1055.68 265.769 1054.59 254.437Z" fill="var(--fill-0, #FF5D00)"/>
<path id="Vector_28" d="M166.097 254.427L178.844 254.458C178.744 265.172 177.073 276.195 176.854 287.258L176.536 287.628C174.99 288.453 170.58 288.159 168.588 288.135L166.097 254.427Z" fill="var(--fill-0, #FF5D00)"/>
<path id="Vector_29" d="M1038.48 254.43L1051.23 254.453C1050.58 265.233 1049.86 276.008 1049.06 286.776L1048.74 287.633C1047.06 288.511 1043.22 288.189 1041.13 288.145C1039.75 277.531 1039.27 265.269 1038.48 254.43Z" fill="var(--fill-0, #FF5D00)"/>
<path id="Vector_30" d="M1022.14 254.437L1034.91 254.453C1034.63 265.425 1033.11 276.133 1032.9 287.249C1031.73 288.644 1026.56 288.171 1024.64 288.144C1023.75 276.888 1023.11 265.703 1022.14 254.437Z" fill="var(--fill-0, #FF5D00)"/>
<path id="Vector_31" d="M133.648 254.444L146.336 254.453C145.908 265.479 144.64 276.201 144.284 287.235L143.99 287.604C142.236 288.479 138.182 288.17 136.026 288.135C135.696 277.827 134.411 264.907 133.648 254.444Z" fill="var(--fill-0, #FF5D00)"/>
<path id="Vector_32" d="M149.944 254.439L162.565 254.453C162.266 264.88 161.14 276.771 160.421 287.322C159.234 288.596 154.382 288.161 152.527 288.134C151.245 277.299 150.615 265.332 149.944 254.439Z" fill="var(--fill-0, #FF5D00)"/>
</g>
<defs>
<clipPath id="clip0_0_476">
<rect width="1201" height="162" fill="white"/>
</clipPath>
</defs>
</svg>
