<svg preserveAspectRatio="none" width="100%" height="100%" overflow="visible" style="display: block;" viewBox="0 0 161 21" fill="none" xmlns="http://www.w3.org/2000/svg">
<g id="image 4 [Vectorized]" clip-path="url(#clip0_0_388)">
<path id="Vector" d="M66.7805 0.0842948C72.0806 0.0231746 77.4936 0.0792834 82.8034 0.0786489C83.9322 1.89825 85.0814 3.7052 86.251 5.49917L86.2469 0.0848807C90.3345 0.0406005 94.52 0.0799588 98.614 0.07943L98.6181 15.0992L98.6206 19.1924C98.6214 19.7486 98.654 20.9379 98.5724 21.408L82.6458 21.409C81.5374 19.8057 80.2527 17.6305 79.1794 15.9496C79.1476 17.7426 79.1729 19.6088 79.1721 21.4075L66.7819 21.4086L66.7805 0.0842948Z" fill="var(--fill-0, #181818)"/>
<path id="Vector_2" d="M0.791065 0.0844904L13.1397 0.0824161L13.1372 5.25219C14.1253 3.5364 15.1014 1.8138 16.0655 0.0844578C21.1445 0.0163494 26.499 0.0622487 31.5809 0.0879317L23.3673 9.7156C24.747 11.8603 26.5875 14.3561 28.0685 16.4841C28.9692 17.621 30.6163 20.1413 31.4984 21.4096L16.188 21.4136C15.1821 19.7927 14.1643 18.179 13.135 16.5726L13.1399 21.4072L0.793407 21.4082L0.791065 0.0844904Z" fill="var(--fill-0, #181818)"/>
<path id="Vector_3" d="M41.2681 0.0818137L57.1703 0.0784944C58.211 2.20508 59.4631 5.35567 60.4335 7.60962L66.3612 21.4077L54.9618 21.408L53.4417 21.4086L52.7567 19.2196L45.6082 19.2207L44.9208 21.4074L32.0135 21.4082C34.9433 14.349 38.2287 7.13127 41.2681 0.0818137Z" fill="var(--fill-0, #181818)"/>
<path id="Vector_4" d="M49.1571 8.29803C49.3971 8.58651 50.2717 11.5444 50.4356 12.079L49.4011 12.0813L47.9237 12.0836L49.1571 8.29803Z" fill="var(--fill-0, #FF5D00)"/>
<path id="Vector_5" d="M135.594 0.0830343L160.768 0.080195L160.767 6.52519L147.311 6.52503L147.315 7.54999L160.77 7.5478L160.767 13.9515L153.314 13.9501L147.319 13.9497L147.312 14.9677L160.769 14.9665L160.767 21.4074L135.6 21.4082L135.594 0.0830343Z" fill="var(--fill-0, #181818)"/>
<path id="Vector_6" d="M99.1307 0.0851085L114.298 0.0791128L117.16 3.22377L119.932 0.0880288C124.791 -0.0329345 130.195 0.067471 135.097 0.0872641L126.29 9.72805C125.304 10.8052 124.28 11.9009 123.323 12.9993V21.4077L110.932 21.4079L110.931 13.0205C109.986 11.8358 108.174 9.97585 107.111 8.8125L99.1307 0.0851085Z" fill="var(--fill-0, #181818)"/>
<path id="Vector_7" d="M127.224 33.7155L128.602 33.7175L128.605 42.6754L126.896 42.6876L126.889 38.152C126.163 39.4073 125.26 41.3488 124.604 42.6802L123.223 42.6861L123.229 33.715L124.909 33.7171L124.915 38.3228C125.648 36.7971 126.462 35.2332 127.224 33.7155Z" fill="var(--fill-0, #181818)"/>
<path id="Vector_8" d="M63.5644 33.7156L64.9167 33.7166C65.3229 34.4165 65.8564 35.5717 66.2353 36.3255C66.6743 35.4592 67.1085 34.5906 67.5381 33.7197L68.9039 33.7174L68.901 42.6797L67.2291 42.6857L67.227 40.5723C67.2318 39.7638 67.2247 38.9554 67.2057 38.1471L66.2422 40.0396C65.9421 39.5313 65.5785 38.7515 65.2739 38.1902C65.2153 39.6037 65.2543 41.2506 65.2554 42.6815L63.5594 42.6877L63.5644 33.7156Z" fill="var(--fill-0, #181818)"/>
<path id="Vector_9" d="M42.1877 33.7157L43.5312 33.7184L43.5267 42.6762L41.8592 42.6859L41.8518 38.1328C41.076 39.6202 40.3219 41.1746 39.5702 42.6781L38.2269 42.6855L38.2281 33.7155L39.8783 33.7193L39.8867 38.2626C40.6501 36.8714 41.4601 35.1551 42.1877 33.7157Z" fill="var(--fill-0, #181818)"/>
<path id="Vector_10" d="M61.5805 33.7153L62.9211 33.7171L62.9192 42.6774L61.2739 42.6867C61.278 41.1651 61.2726 39.6435 61.2575 38.122C60.4578 39.5428 59.7299 41.2045 58.9283 42.6789L57.6068 42.6861C57.6031 39.704 57.5807 36.6966 57.6144 33.7167L59.3001 33.7172C59.3034 35.2287 59.3256 36.7943 59.2775 38.2999L61.5805 33.7153Z" fill="var(--fill-0, #181818)"/>
<path id="Vector_11" d="M117.293 33.7154L118.998 33.7188V37.3531L120.969 37.3536L120.972 33.7163L122.669 33.7193L122.672 42.6796L120.974 42.6863L120.971 39.0492L118.998 39.0506V42.6806L117.29 42.6873L117.293 33.7154Z" fill="var(--fill-0, #181818)"/>
<path id="Vector_12" d="M111.391 33.7163L116.725 33.7167L116.722 35.3944L113.083 35.3946L113.084 37.353L116.725 37.3543L116.723 39.0458L113.08 39.0492L113.083 41.0015L116.724 40.9976V42.6801L111.387 42.6868L111.391 33.7163Z" fill="var(--fill-0, #181818)"/>
<path id="Vector_13" d="M75.4962 33.7152L80.8216 33.7181L80.8249 35.3929L77.1952 35.3956L77.1946 37.3529L80.8224 37.3548L80.8249 39.0444L77.1939 39.0517L77.1927 41L80.8208 41.0011L80.8241 42.6813L75.492 42.6868L75.4962 33.7152Z" fill="var(--fill-0, #181818)"/>
<path id="Vector_14" d="M98.6459 33.716L100.327 33.7203C100.361 36.6876 100.333 39.7085 100.335 42.6803L98.6491 42.6865L98.6483 39.0491L96.6601 39.0506L96.6609 42.682L94.9844 42.6866L94.9901 33.7167L96.6592 33.7189L96.6609 37.353L98.6434 37.3538L98.6459 33.716Z" fill="var(--fill-0, #181818)"/>
<path id="Vector_15" d="M129.187 33.7154L134.509 33.7177L134.507 35.3946L130.834 35.395L130.835 37.3531L134.509 37.3547L134.507 39.0468L130.834 39.0481L130.835 41.0019L134.508 40.9983L134.507 42.679L129.178 42.6877L129.187 33.7154Z" fill="var(--fill-0, #181818)"/>
<path id="Vector_16" d="M69.5445 33.7151L74.8491 33.7184L74.8504 35.3949L71.1958 35.3959L71.1935 37.3516L74.8505 37.3542L74.8516 39.0473L71.1934 39.0557L71.1903 40.9967L74.8507 40.9989L74.8512 42.6815L69.5428 42.6874L69.5445 33.7151Z" fill="var(--fill-0, #181818)"/>
<path id="Vector_17" d="M49.5754 33.7211L51.2513 33.7217L51.2495 37.352C52.1025 37.3348 52.8496 37.3108 53.604 37.7796C55.2273 38.7882 55.3116 40.559 54.0853 41.9274C52.8804 43.0023 51.2154 42.6964 49.566 42.6879C49.6442 39.8201 49.5738 36.6164 49.5754 33.7211Z" fill="var(--fill-0, #181818)"/>
<path id="Vector_18" d="M51.2496 39.0444C52.3335 39.0024 53.9351 39.1783 52.9514 40.7158C52.3675 41.103 51.9539 41.012 51.2487 41.0024L51.2496 39.0444Z" fill="var(--fill-0, #FF5D00)"/>
<path id="Vector_19" d="M91.7122 33.7267C92.375 33.7225 92.9219 33.8371 93.4752 34.2181C94.0433 34.6145 94.4286 35.2207 94.5453 35.9018C94.7077 36.818 94.4196 37.4643 93.9095 38.1902C94.7404 39.3872 94.9265 40.7604 93.8181 41.8658C93.3055 42.3823 92.6068 42.6729 91.8771 42.6733C91.176 42.6728 90.5043 42.3925 90.0113 41.895C89.2718 41.1413 89.2187 40.3369 89.2261 39.3612L90.9287 39.3617C90.8324 41.8996 92.8957 41.0041 92.8957 39.9048C92.8966 39.7005 92.8133 39.5047 92.6664 39.3625C92.2534 38.9653 91.7751 39.0265 91.2405 39.037L91.2397 37.3552C95.2195 37.4713 90.856 33.0834 90.9271 37.0418L89.2261 37.0432C89.2122 35.2099 89.7607 34.0245 91.7122 33.7267Z" fill="var(--fill-0, #181818)"/>
<path id="Vector_20" d="M102.946 33.7145L104.274 33.7146L106.485 42.6816L104.725 42.6868C104.678 42.3727 104.685 41.9537 104.398 41.806L102.704 41.8052L102.451 42.6803L100.723 42.6872L102.946 33.7145Z" fill="var(--fill-0, #181818)"/>
<path id="Vector_21" d="M103.6 38.2316C103.782 38.4428 104.068 39.7881 104.01 40.0644L103.826 40.1553L103.339 40.1127L103.22 39.9621C103.153 39.4078 103.424 38.7902 103.6 38.2316Z" fill="var(--fill-0, #FF5D00)"/>
<path id="Vector_22" d="M29.0818 33.794C29.3068 33.7677 29.5331 33.7545 29.7597 33.7545C31.7383 33.7556 32.4093 35.3243 32.3871 37.0415L30.6886 37.0433C30.6929 36.6385 30.7493 36.0246 30.4522 35.7378C29.5327 34.7331 28.6271 35.9082 28.6954 36.8914C28.7731 38.0109 28.3782 39.8437 29.1317 40.7837C29.4698 41.2054 30.1153 40.9932 30.4349 40.6762C30.7451 40.3684 30.6889 39.7729 30.6876 39.3585L32.3867 39.3594C32.4383 41.4989 31.0148 43.3341 28.6235 42.503C26.7235 41.8426 27.0273 38.7997 27.0227 37.2163C27.0179 35.5337 27.3069 34.4277 29.0818 33.794Z" fill="var(--fill-0, #181818)"/>
<path id="Vector_23" d="M45.9043 33.7149L47.1941 33.7148C47.9984 36.5955 48.6629 39.7445 49.4344 42.6741L47.6962 42.6886C47.3515 41.3413 47.0191 39.9909 46.699 38.6376L46.5726 38.301C46.4044 38.4413 45.5395 42.1535 45.4095 42.6816L43.6671 42.6827C44.4756 40.0059 45.1633 36.5126 45.9043 33.7149Z" fill="var(--fill-0, #181818)"/>
<path id="Vector_24" d="M105.454 33.7158L107.131 33.7182C107.143 34.2333 107.134 34.843 107.107 35.3527C107.012 37.185 107.449 37.3927 109.118 37.3535L109.124 33.7167L110.793 33.719L110.793 39.0266L110.798 42.6815L109.124 42.6868L109.123 39.0502C108.94 39.052 108.756 39.0525 108.572 39.0517C105.021 39.0318 105.42 36.3054 105.454 33.7158Z" fill="var(--fill-0, #181818)"/>
<path id="Vector_25" d="M81.3726 33.7145L86.682 33.7184L86.6795 35.3937L84.8749 35.3956L84.8765 40.8977L84.8757 42.6816L83.1707 42.6855L83.1715 35.3954L81.366 35.3967L81.3726 33.7145Z" fill="var(--fill-0, #181818)"/>
<path id="Vector_26" d="M32.3591 33.7172L37.6671 33.7175L37.6636 35.395L35.8646 35.3954L35.8683 40.8164L35.866 42.6816L34.1709 42.6876C34.1423 40.276 34.1687 37.8104 34.1696 35.3946L32.3645 35.3964L32.3591 33.7172Z" fill="var(--fill-0, #181818)"/>
<path id="Vector_27" d="M141.292 33.7158L143.009 33.7196C142.964 35.1761 142.811 36.6141 142.733 38.0698L142.693 38.1197C142.485 38.2307 141.901 38.1906 141.634 38.187C141.511 36.6875 141.437 35.2188 141.292 33.7158Z" fill="var(--fill-0, #181818)"/>
<path id="Vector_28" d="M22.869 33.7144L24.5679 33.7184C24.5546 35.1397 24.3319 36.6018 24.3027 38.0692L24.2603 38.1183C24.0542 38.2277 23.4664 38.1887 23.201 38.1855L22.869 33.7144Z" fill="var(--fill-0, #181818)"/>
<path id="Vector_29" d="M139.144 33.7147L140.844 33.7179C140.758 35.1477 140.662 36.5769 140.555 38.0053L140.512 38.1189C140.288 38.2354 139.776 38.1927 139.498 38.1869C139.314 36.7789 139.25 35.1524 139.144 33.7147Z" fill="var(--fill-0, #181818)"/>
<path id="Vector_30" d="M136.967 33.7158L138.669 33.7179C138.632 35.1732 138.429 36.5936 138.402 38.0681C138.246 38.2531 137.556 38.1903 137.3 38.1867C137.181 36.6937 137.096 35.2101 136.967 33.7158Z" fill="var(--fill-0, #181818)"/>
<path id="Vector_31" d="M18.5439 33.7167L20.2351 33.7179C20.178 35.1803 20.009 36.6026 19.9616 38.0662L19.9224 38.1151C19.6886 38.2312 19.1483 38.1902 18.8609 38.1855C18.8169 36.8183 18.6456 35.1044 18.5439 33.7167Z" fill="var(--fill-0, #181818)"/>
<path id="Vector_32" d="M20.7159 33.716L22.3982 33.7178C22.3584 35.1009 22.2083 36.6782 22.1124 38.0777C21.9542 38.2467 21.3075 38.189 21.0603 38.1854C20.8894 36.7482 20.8055 35.1608 20.7159 33.716Z" fill="var(--fill-0, #181818)"/>
</g>
<defs>
<clipPath id="clip0_0_388">
<rect width="161" height="21" fill="white"/>
</clipPath>
</defs>
</svg>
