<svg preserveAspectRatio="none" width="100%" height="100%" overflow="visible" style="display: block;" viewBox="0 0 1411 189" fill="none" xmlns="http://www.w3.org/2000/svg">
<g id="logo" clip-path="url(#clip0_0_4)">
<path id="Vector" d="M581.581 0.742771C628.294 0.204331 676.003 0.698623 722.801 0.693033C732.75 16.7229 742.879 32.6412 753.188 48.4453L753.152 0.747933C789.178 0.357845 826.067 0.704573 862.151 0.699914L862.187 133.017L862.209 169.077C862.216 173.976 862.504 184.453 861.784 188.595L721.413 188.603C711.644 174.479 700.321 155.316 690.861 140.508C690.58 156.304 690.803 172.744 690.796 188.59L581.594 188.6L581.581 0.742771Z" fill="var(--fill-0, #FF5D00)"/>
<path id="Vector_2" d="M-0.0278187 0.744339L108.809 0.726065L108.787 46.2693C117.496 31.1541 126.099 15.9787 134.596 0.744051C179.361 0.144049 226.553 0.5484 271.343 0.774655L198.952 85.5898C211.112 104.484 227.333 126.471 240.386 145.217C248.325 155.233 262.842 177.435 270.617 188.609L135.676 188.644C126.81 174.364 117.84 160.148 108.768 145.996L108.811 188.587L-0.0071741 188.596L-0.0278187 0.744339Z" fill="var(--fill-0, #FF5D00)"/>
<path id="Vector_3" d="M356.723 0.720648L496.879 0.691406C506.052 19.4256 517.087 47.1808 525.641 67.0371L577.885 188.591L477.415 188.594L464.017 188.599L457.98 169.316L394.975 169.325L388.917 188.589L275.156 188.596C300.979 126.407 329.935 62.823 356.723 0.720648Z" fill="var(--fill-0, #FF5D00)"/>
<path id="Vector_4" d="M426.254 73.1016C428.37 75.6429 436.078 101.701 437.522 106.41L428.404 106.431L415.384 106.451L426.254 73.1016Z" fill="var(--fill-0, #181818)"/>
<path id="Vector_5" d="M1188.08 0.731556L1409.95 0.706543L1409.95 57.4839L1291.35 57.4825L1291.39 66.5119L1409.97 66.4926L1409.95 122.906L1344.26 122.894L1291.42 122.89L1291.36 131.859L1409.96 131.848L1409.95 188.589L1188.14 188.596L1188.08 0.731556Z" fill="var(--fill-0, #FF5D00)"/>
<path id="Vector_6" d="M866.705 0.749872L1000.39 0.697053L1025.61 28.3999L1050.04 0.775598C1092.87 -0.290031 1140.5 0.594494 1183.7 0.768861L1106.08 85.6996C1097.39 95.1884 1088.36 104.841 1079.93 114.518V188.592L970.719 188.594L970.705 114.704C962.382 104.268 946.411 87.8826 937.038 77.6341L866.705 0.749872Z" fill="var(--fill-0, #FF5D00)"/>
<path id="Vector_7" d="M1114.31 297.017L1126.46 297.035L1126.48 375.95L1111.42 376.057L1111.36 336.101C1104.95 347.159 1097 364.263 1091.21 375.993L1079.04 376.044L1079.1 297.013L1093.9 297.032L1093.96 337.606C1100.42 324.165 1107.59 310.388 1114.31 297.017Z" fill="var(--fill-0, #FF5D00)"/>
<path id="Vector_8" d="M553.235 297.019L565.154 297.027C568.734 303.193 573.437 313.37 576.776 320.01C580.645 312.379 584.472 304.727 588.258 297.055L600.296 297.034L600.27 375.988L585.535 376.041L585.516 357.423C585.558 350.301 585.496 343.178 585.329 336.058L576.836 352.73C574.191 348.252 570.986 341.382 568.303 336.438C567.786 348.89 568.129 363.399 568.139 376.004L553.191 376.059L553.235 297.019Z" fill="var(--fill-0, #FF5D00)"/>
<path id="Vector_9" d="M364.828 297.019L376.669 297.043L376.63 375.957L361.933 376.042L361.867 335.932C355.03 349.035 348.383 362.728 341.759 375.974L329.919 376.038L329.93 297.018L344.474 297.051L344.548 337.076C351.276 324.82 358.416 309.7 364.828 297.019Z" fill="var(--fill-0, #FF5D00)"/>
<path id="Vector_10" d="M535.749 297.016L547.565 297.031L547.549 375.968L533.047 376.049C533.084 362.645 533.036 349.241 532.903 335.837C525.855 348.353 519.439 362.992 512.374 375.981L500.727 376.044C500.694 349.773 500.497 323.28 500.794 297.028L515.651 297.033C515.68 310.348 515.876 324.14 515.452 337.404L535.749 297.016Z" fill="var(--fill-0, #FF5D00)"/>
<path id="Vector_11" d="M1026.78 297.016L1041.81 297.046V329.063L1059.18 329.067L1059.21 297.025L1074.17 297.05L1074.19 375.987L1059.22 376.046L1059.2 344.005L1041.81 344.017V375.995L1026.75 376.055L1026.78 297.016Z" fill="var(--fill-0, #FF5D00)"/>
<path id="Vector_12" d="M974.762 297.024L1021.77 297.028L1021.75 311.808L989.675 311.81L989.682 329.062L1021.77 329.074L1021.76 343.975L989.653 344.004L989.675 361.203L1021.77 361.169V375.991L974.726 376.05L974.762 297.024Z" fill="var(--fill-0, #FF5D00)"/>
<path id="Vector_13" d="M658.398 297.015L705.335 297.04L705.364 311.795L673.373 311.818L673.367 329.061L705.342 329.078L705.364 343.963L673.361 344.027L673.351 361.19L705.328 361.2L705.356 376.002L658.361 376.051L658.398 297.015Z" fill="var(--fill-0, #FF5D00)"/>
<path id="Vector_14" d="M862.432 297.022L877.251 297.06C877.546 323.2 877.301 349.813 877.323 375.993L862.46 376.048L862.453 344.004L844.929 344.017L844.937 376.008L830.161 376.049L830.211 297.028L844.922 297.047L844.937 329.062L862.41 329.069L862.432 297.022Z" fill="var(--fill-0, #FF5D00)"/>
<path id="Vector_15" d="M1131.61 297.017L1178.52 297.037L1178.5 311.809L1146.13 311.814L1146.14 329.063L1178.52 329.077L1178.5 343.984L1146.12 343.995L1146.14 361.207L1178.51 361.176L1178.5 375.982L1131.54 376.059L1131.61 297.017Z" fill="var(--fill-0, #FF5D00)"/>
<path id="Vector_16" d="M605.942 297.014L652.695 297.043L652.707 311.812L620.496 311.821L620.476 329.05L652.707 329.073L652.717 343.988L620.475 344.063L620.448 361.162L652.709 361.18L652.713 376.004L605.927 376.056L605.942 297.014Z" fill="var(--fill-0, #FF5D00)"/>
<path id="Vector_17" d="M429.941 297.066L444.712 297.072L444.696 329.053C452.214 328.902 458.799 328.691 465.448 332.82C479.755 341.705 480.498 357.305 469.689 369.361C459.07 378.83 444.395 376.135 429.858 376.06C430.547 350.796 429.927 322.573 429.941 297.066Z" fill="var(--fill-0, #FF5D00)"/>
<path id="Vector_18" d="M444.697 343.963C454.25 343.592 468.366 345.143 459.696 358.687C454.55 362.098 450.904 361.296 444.689 361.211L444.697 343.963Z" fill="var(--fill-0, #181818)"/>
<path id="Vector_19" d="M801.321 297.116C807.162 297.079 811.982 298.089 816.859 301.445C821.866 304.937 825.262 310.277 826.29 316.278C827.722 324.349 825.183 330.043 820.687 336.437C828.01 346.982 829.65 359.08 819.881 368.818C815.363 373.367 809.205 375.928 802.774 375.932C796.595 375.927 790.674 373.458 786.329 369.074C779.812 362.435 779.344 355.349 779.409 346.754L794.415 346.758C793.566 369.115 811.752 361.227 811.752 351.542C811.759 349.742 811.025 348.017 809.73 346.765C806.09 343.265 801.875 343.805 797.163 343.898L797.156 329.082C832.232 330.104 793.775 291.449 794.401 326.32L779.409 326.333C779.287 310.182 784.121 299.739 801.321 297.116Z" fill="var(--fill-0, #FF5D00)"/>
<path id="Vector_20" d="M900.328 297.009L912.04 297.01L931.52 376.005L916.011 376.051C915.593 373.283 915.658 369.592 913.126 368.291L898.199 368.284L895.969 375.993L880.74 376.055L900.328 297.009Z" fill="var(--fill-0, #FF5D00)"/>
<path id="Vector_21" d="M906.098 336.803C907.702 338.663 910.22 350.514 909.709 352.948L908.083 353.749L903.796 353.374L902.745 352.047C902.156 347.164 904.544 341.723 906.098 336.803Z" fill="var(--fill-0, #181818)"/>
<path id="Vector_22" d="M249.317 297.709C251.3 297.477 253.295 297.361 255.292 297.361C272.73 297.371 278.645 311.19 278.449 326.317L263.479 326.334C263.517 322.768 264.014 317.36 261.395 314.833C253.291 305.982 245.31 316.334 245.911 324.996C246.596 334.858 243.116 351.003 249.757 359.285C252.737 363 258.426 361.13 261.243 358.338C263.977 355.626 263.481 350.38 263.47 346.73L278.446 346.738C278.9 365.586 266.354 381.753 245.278 374.431C228.532 368.614 231.209 341.807 231.169 327.858C231.127 313.035 233.674 303.291 249.317 297.709Z" fill="var(--fill-0, #FF5D00)"/>
<path id="Vector_23" d="M397.585 297.012L408.953 297.011C416.042 322.389 421.898 350.13 428.699 375.939L413.378 376.067C410.34 364.198 407.411 352.301 404.59 340.379L403.475 337.414C401.993 338.649 394.37 371.352 393.224 376.004L377.867 376.014C384.993 352.433 391.055 321.659 397.585 297.012Z" fill="var(--fill-0, #FF5D00)"/>
<path id="Vector_24" d="M922.435 297.021L937.218 297.041C937.326 301.579 937.239 306.95 937.009 311.441C936.167 327.583 940.023 329.412 954.727 329.067L954.785 297.028L969.489 297.048L969.496 343.806L969.532 376.003L954.785 376.051L954.778 344.014C953.159 344.03 951.54 344.034 949.915 344.027C918.622 343.852 922.132 319.833 922.435 297.021Z" fill="var(--fill-0, #FF5D00)"/>
<path id="Vector_25" d="M710.19 297.009L756.986 297.044L756.964 311.802L741.059 311.819L741.073 360.29L741.066 376.004L726.038 376.04L726.045 311.817L710.133 311.828L710.19 297.009Z" fill="var(--fill-0, #FF5D00)"/>
<path id="Vector_26" d="M278.203 297.033L324.985 297.035L324.955 311.813L309.099 311.816L309.131 359.573L309.111 376.005L294.171 376.057C293.919 354.812 294.151 333.092 294.16 311.81L278.25 311.826L278.203 297.033Z" fill="var(--fill-0, #FF5D00)"/>
<path id="Vector_27" d="M1238.3 297.02L1253.43 297.054C1253.04 309.885 1251.69 322.553 1251 335.377L1250.65 335.817C1248.81 336.794 1243.67 336.441 1241.31 336.409C1240.23 323.2 1239.58 310.261 1238.3 297.02Z" fill="var(--fill-0, #FF5D00)"/>
<path id="Vector_28" d="M194.559 297.008L209.533 297.044C209.416 309.564 207.453 322.445 207.196 335.372L206.822 335.804C205.006 336.768 199.825 336.424 197.486 336.396L194.559 297.008Z" fill="var(--fill-0, #FF5D00)"/>
<path id="Vector_29" d="M1219.37 297.01L1234.35 297.038C1233.59 309.635 1232.74 322.225 1231.8 334.809L1231.43 335.809C1229.45 336.835 1224.94 336.459 1222.49 336.408C1220.87 324.005 1220.3 309.676 1219.37 297.01Z" fill="var(--fill-0, #FF5D00)"/>
<path id="Vector_30" d="M1200.18 297.02L1215.18 297.039C1214.85 309.859 1213.07 322.372 1212.82 335.362C1211.45 336.992 1205.37 336.439 1203.11 336.407C1202.07 323.254 1201.31 310.185 1200.18 297.02Z" fill="var(--fill-0, #FF5D00)"/>
<path id="Vector_31" d="M156.44 297.028L171.345 297.039C170.842 309.922 169.353 322.451 168.935 335.345L168.589 335.776C166.529 336.798 161.767 336.437 159.234 336.396C158.846 324.352 157.336 309.254 156.44 297.028Z" fill="var(--fill-0, #FF5D00)"/>
<path id="Vector_32" d="M175.583 297.022L190.41 297.038C190.059 309.222 188.736 323.118 187.891 335.447C186.497 336.935 180.797 336.427 178.618 336.396C177.112 323.734 176.372 309.75 175.583 297.022Z" fill="var(--fill-0, #FF5D00)"/>
</g>
<defs>
<clipPath id="clip0_0_4">
<rect width="1411" height="189" fill="white"/>
</clipPath>
</defs>
</svg>
