<svg preserveAspectRatio="none" width="100%" height="100%" overflow="visible" style="display: block;" viewBox="0 0 1419 185" fill="none" xmlns="http://www.w3.org/2000/svg">
<g id="image 4 [Vectorized]" clip-path="url(#clip0_0_58)">
<path id="Vector" d="M588.581 0.742597C635.294 0.204157 683.003 0.698449 729.801 0.692859C739.75 16.7227 749.879 32.6411 760.188 48.4451L760.152 0.747759C796.178 0.357671 833.067 0.704399 869.151 0.69974L869.187 133.017L869.209 169.076C869.216 173.976 869.504 184.453 868.784 188.594L728.413 188.603C718.644 174.479 707.321 155.316 697.861 140.508C697.58 156.304 697.803 172.744 697.796 188.59L588.594 188.599L588.581 0.742597Z" fill="var(--fill-0, #181818)"/>
<path id="Vector_2" d="M6.97218 0.744321L115.809 0.726047L115.787 46.2693C124.496 31.154 133.099 15.9787 141.596 0.744033C186.361 0.144031 233.553 0.548382 278.343 0.774637L205.952 85.5898C218.112 104.484 234.333 126.471 247.386 145.217C255.325 155.233 269.842 177.435 277.617 188.609L142.676 188.644C133.81 174.364 124.84 160.148 115.768 145.996L115.811 188.587L6.99283 188.596L6.97218 0.744321Z" fill="var(--fill-0, #181818)"/>
<path id="Vector_3" d="M363.723 0.72074L503.879 0.691498C513.052 19.4257 524.087 47.1809 532.641 67.0372L584.885 188.591L484.415 188.594L471.017 188.599L464.98 169.316L401.975 169.325L395.917 188.589L282.156 188.596C307.979 126.407 336.935 62.8231 363.723 0.72074Z" fill="var(--fill-0, #181818)"/>
<path id="Vector_4" d="M433.254 73.1017C435.37 75.643 443.078 101.701 444.522 106.41L435.404 106.431L422.384 106.451L433.254 73.1017Z" fill="var(--fill-0, #181818)"/>
<path id="Vector_5" d="M1195.08 0.731492L1416.95 0.70648L1416.95 57.4838L1298.35 57.4824L1298.39 66.5118L1416.97 66.4925L1416.95 122.906L1351.26 122.894L1298.42 122.89L1298.36 131.859L1416.96 131.848L1416.95 188.589L1195.14 188.596L1195.08 0.731492Z" fill="var(--fill-0, #181818)"/>
<path id="Vector_6" d="M873.705 0.749765L1007.39 0.696946L1032.61 28.3998L1057.04 0.775491C1099.87 -0.290137 1147.5 0.594387 1190.7 0.768755L1113.08 85.6995C1104.39 95.1883 1095.36 104.841 1086.93 114.518V188.591L977.719 188.594L977.705 114.704C969.382 104.268 953.411 87.8825 944.038 77.634L873.705 0.749765Z" fill="var(--fill-0, #181818)"/>
<path id="Vector_7" d="M1121.31 297.018L1133.46 297.036L1133.48 375.95L1118.42 376.057L1118.36 336.101C1111.95 347.159 1104 364.263 1098.21 375.993L1086.04 376.044L1086.1 297.013L1100.9 297.032L1100.96 337.606C1107.42 324.165 1114.59 310.388 1121.31 297.018Z" fill="var(--fill-0, #181818)"/>
<path id="Vector_8" d="M560.235 297.018L572.154 297.027C575.734 303.193 580.437 313.369 583.776 320.01C587.645 312.379 591.472 304.727 595.258 297.055L607.296 297.034L607.27 375.988L592.535 376.041L592.516 357.423C592.558 350.301 592.496 343.178 592.329 336.058L583.836 352.73C581.191 348.252 577.986 341.382 575.303 336.438C574.786 348.889 575.129 363.399 575.139 376.003L560.191 376.059L560.235 297.018Z" fill="var(--fill-0, #181818)"/>
<path id="Vector_9" d="M371.828 297.019L383.669 297.043L383.63 375.957L368.933 376.042L368.867 335.932C362.03 349.035 355.383 362.728 348.759 375.974L336.919 376.039L336.93 297.018L351.474 297.051L351.548 337.076C358.276 324.82 365.416 309.7 371.828 297.019Z" fill="var(--fill-0, #181818)"/>
<path id="Vector_10" d="M542.749 297.016L554.565 297.031L554.549 375.968L540.047 376.049C540.084 362.645 540.036 349.241 539.903 335.837C532.855 348.353 526.439 362.992 519.374 375.981L507.727 376.044C507.694 349.773 507.497 323.28 507.794 297.028L522.651 297.033C522.68 310.348 522.876 324.14 522.452 337.404L542.749 297.016Z" fill="var(--fill-0, #181818)"/>
<path id="Vector_11" d="M1033.78 297.016L1048.81 297.046V329.063L1066.18 329.067L1066.21 297.025L1081.17 297.051L1081.19 375.987L1066.22 376.046L1066.2 344.005L1048.81 344.017V375.996L1033.75 376.055L1033.78 297.016Z" fill="var(--fill-0, #181818)"/>
<path id="Vector_12" d="M981.762 297.024L1028.77 297.028L1028.75 311.808L996.675 311.81L996.682 329.062L1028.77 329.074L1028.76 343.975L996.653 344.005L996.675 361.203L1028.77 361.169V375.991L981.726 376.05L981.762 297.024Z" fill="var(--fill-0, #181818)"/>
<path id="Vector_13" d="M665.398 297.015L712.335 297.041L712.364 311.795L680.373 311.818L680.367 329.061L712.342 329.078L712.364 343.963L680.361 344.027L680.351 361.19L712.328 361.2L712.356 376.002L665.361 376.051L665.398 297.015Z" fill="var(--fill-0, #181818)"/>
<path id="Vector_14" d="M869.432 297.022L884.251 297.06C884.546 323.2 884.301 349.813 884.323 375.993L869.46 376.048L869.453 344.004L851.929 344.017L851.937 376.008L837.161 376.049L837.211 297.028L851.922 297.047L851.937 329.062L869.41 329.069L869.432 297.022Z" fill="var(--fill-0, #181818)"/>
<path id="Vector_15" d="M1138.61 297.017L1185.52 297.037L1185.5 311.809L1153.13 311.813L1153.14 329.063L1185.52 329.077L1185.5 343.984L1153.12 343.995L1153.14 361.207L1185.51 361.175L1185.5 375.982L1138.54 376.059L1138.61 297.017Z" fill="var(--fill-0, #181818)"/>
<path id="Vector_16" d="M612.942 297.014L659.695 297.043L659.707 311.812L627.496 311.821L627.476 329.05L659.707 329.073L659.717 343.988L627.475 344.063L627.448 361.162L659.709 361.18L659.713 376.003L612.927 376.056L612.942 297.014Z" fill="var(--fill-0, #181818)"/>
<path id="Vector_17" d="M436.941 297.066L451.712 297.072L451.696 329.053C459.214 328.902 465.799 328.691 472.448 332.82C486.755 341.705 487.498 357.305 476.689 369.361C466.07 378.83 451.395 376.135 436.858 376.06C437.547 350.796 436.927 322.573 436.941 297.066Z" fill="var(--fill-0, #181818)"/>
<path id="Vector_18" d="M451.697 343.963C461.25 343.592 475.366 345.143 466.696 358.687C461.55 362.098 457.904 361.296 451.689 361.211L451.697 343.963Z" fill="var(--fill-0, #181818)"/>
<path id="Vector_19" d="M808.321 297.116C814.162 297.079 818.982 298.089 823.859 301.445C828.866 304.937 832.262 310.278 833.29 316.278C834.722 324.349 832.183 330.043 827.687 336.437C835.01 346.982 836.65 359.08 826.881 368.818C822.363 373.368 816.205 375.928 809.774 375.932C803.595 375.927 797.674 373.458 793.329 369.075C786.812 362.435 786.344 355.349 786.409 346.754L801.415 346.758C800.566 369.115 818.752 361.227 818.752 351.543C818.759 349.742 818.025 348.017 816.73 346.765C813.09 343.266 808.875 343.805 804.163 343.898L804.156 329.082C839.232 330.105 800.775 291.449 801.401 326.32L786.409 326.333C786.287 310.182 791.121 299.74 808.321 297.116Z" fill="var(--fill-0, #181818)"/>
<path id="Vector_20" d="M907.328 297.009L919.04 297.01L938.52 376.005L923.011 376.051C922.593 373.283 922.658 369.592 920.126 368.291L905.199 368.284L902.969 375.993L887.74 376.054L907.328 297.009Z" fill="var(--fill-0, #181818)"/>
<path id="Vector_21" d="M913.098 336.803C914.702 338.663 917.22 350.514 916.709 352.948L915.083 353.749L910.796 353.374L909.745 352.047C909.156 347.164 911.544 341.723 913.098 336.803Z" fill="var(--fill-0, #181818)"/>
<path id="Vector_22" d="M256.317 297.709C258.3 297.477 260.295 297.361 262.292 297.361C279.73 297.371 285.645 311.19 285.449 326.318L270.479 326.334C270.517 322.768 271.014 317.36 268.395 314.833C260.291 305.982 252.31 316.334 252.911 324.996C253.596 334.858 250.116 351.004 256.757 359.285C259.737 363 265.426 361.13 268.243 358.338C270.977 355.626 270.481 350.38 270.47 346.73L285.446 346.738C285.9 365.586 273.354 381.753 252.278 374.431C235.532 368.614 238.209 341.807 238.169 327.858C238.127 313.035 240.674 303.291 256.317 297.709Z" fill="var(--fill-0, #181818)"/>
<path id="Vector_23" d="M404.585 297.012L415.953 297.011C423.042 322.389 428.898 350.13 435.699 375.939L420.378 376.066C417.34 364.198 414.411 352.301 411.59 340.379L410.475 337.414C408.993 338.649 401.37 371.352 400.224 376.004L384.867 376.014C391.993 352.433 398.055 321.658 404.585 297.012Z" fill="var(--fill-0, #181818)"/>
<path id="Vector_24" d="M929.435 297.021L944.218 297.041C944.326 301.579 944.239 306.95 944.009 311.441C943.167 327.583 947.023 329.412 961.727 329.067L961.785 297.028L976.489 297.049L976.496 343.806L976.532 376.004L961.785 376.051L961.778 344.014C960.159 344.03 958.54 344.034 956.915 344.027C925.622 343.852 929.132 319.833 929.435 297.021Z" fill="var(--fill-0, #181818)"/>
<path id="Vector_25" d="M717.19 297.009L763.986 297.043L763.964 311.801L748.059 311.818L748.073 360.29L748.066 376.004L733.038 376.039L733.045 311.817L717.133 311.828L717.19 297.009Z" fill="var(--fill-0, #181818)"/>
<path id="Vector_26" d="M285.203 297.033L331.985 297.035L331.955 311.813L316.099 311.816L316.131 359.573L316.111 376.005L301.171 376.057C300.919 354.812 301.151 333.092 301.16 311.81L285.25 311.826L285.203 297.033Z" fill="var(--fill-0, #181818)"/>
<path id="Vector_27" d="M1245.3 297.02L1260.43 297.054C1260.04 309.885 1258.69 322.553 1258 335.377L1257.65 335.816C1255.81 336.794 1250.67 336.441 1248.31 336.409C1247.23 323.199 1246.58 310.261 1245.3 297.02Z" fill="var(--fill-0, #181818)"/>
<path id="Vector_28" d="M201.559 297.008L216.533 297.043C216.416 309.564 214.453 322.445 214.196 335.371L213.822 335.804C212.006 336.768 206.825 336.424 204.486 336.396L201.559 297.008Z" fill="var(--fill-0, #181818)"/>
<path id="Vector_29" d="M1226.37 297.01L1241.35 297.038C1240.59 309.635 1239.74 322.225 1238.8 334.809L1238.43 335.809C1236.45 336.836 1231.94 336.459 1229.49 336.408C1227.87 324.005 1227.3 309.676 1226.37 297.01Z" fill="var(--fill-0, #181818)"/>
<path id="Vector_30" d="M1207.18 297.02L1222.18 297.038C1221.85 309.859 1220.07 322.372 1219.82 335.361C1218.45 336.992 1212.37 336.439 1210.11 336.407C1209.07 323.254 1208.31 310.184 1207.18 297.02Z" fill="var(--fill-0, #181818)"/>
<path id="Vector_31" d="M163.44 297.028L178.345 297.038C177.842 309.922 176.353 322.451 175.935 335.345L175.589 335.776C173.529 336.798 168.767 336.437 166.234 336.396C165.846 324.352 164.336 309.253 163.44 297.028Z" fill="var(--fill-0, #181818)"/>
<path id="Vector_32" d="M182.583 297.022L197.41 297.038C197.059 309.222 195.736 323.118 194.891 335.447C193.497 336.935 187.797 336.427 185.618 336.396C184.112 323.734 183.372 309.75 182.583 297.022Z" fill="var(--fill-0, #181818)"/>
</g>
<defs>
<clipPath id="clip0_0_58">
<rect width="1419" height="185" fill="white"/>
</clipPath>
</defs>
</svg>
