<svg width="20" height="14" viewBox="0 0 20 14" fill="none" xmlns="http://www.w3.org/2000/svg">
<path d="M15 0L20 0.0119525C19.8693 4.56242 19.4225 9.05495 19.1968 13.6029L19.0803 13.7587C18.4743 14.1053 16.7752 13.9801 15.9957 13.9689C15.6393 9.2842 15.423 4.69585 15 0Z" fill="#181818"/>
<path d="M8 0L13 0.00990513C12.7478 4.47365 12.4645 8.93536 12.1499 13.3945L12.025 13.7491C11.3646 14.1128 9.85878 13.9794 9.03986 13.9614C8.49951 9.56596 8.3098 4.48838 8 0Z" fill="#181818"/>
<path d="M0 0L6 0.00660413C5.86769 4.55033 5.15439 8.98508 5.05659 13.5885C4.50722 14.1663 2.07673 13.9703 1.17356 13.9591C0.756495 9.29751 0.454459 4.66564 0 0Z" fill="#181818"/>
</svg>
