<svg width="19" height="14" viewBox="0 0 19 14" fill="none" xmlns="http://www.w3.org/2000/svg">
<path d="M14 0L19 0.0119525C18.8693 4.56242 18.4225 9.05495 18.1968 13.6029L18.0803 13.7587C17.4743 14.1053 15.7752 13.9801 14.9957 13.9689C14.6393 9.2842 14.423 4.69585 14 0Z" fill="#181818"/>
<path d="M7 0L12 0.00990513C11.7478 4.47365 11.4645 8.93536 11.1499 13.3945L11.025 13.7491C10.3646 14.1128 8.85878 13.9794 8.03986 13.9614C7.49951 9.56596 7.3098 4.48838 7 0Z" fill="#181818"/>
<path d="M0 0L6 0.00660413C5.86769 4.55033 5.15439 8.98508 5.05659 13.5885C4.50722 14.1663 2.07673 13.9703 1.17356 13.9591C0.756495 9.29751 0.454459 4.66564 0 0Z" fill="#181818"/>
</svg>
