<svg preserveAspectRatio="none" width="100%" height="100%" overflow="visible" style="display: block;" viewBox="0 0 1469 84" fill="none" xmlns="http://www.w3.org/2000/svg">
<g id="image 4 [Vectorized]" clip-path="url(#clip0_0_335)">
<path id="Vector" d="M606.134 -309.911C654.772 -310.474 704.448 -309.957 753.175 -309.963C763.534 -293.196 774.08 -276.547 784.813 -260.017L784.776 -309.905C822.287 -310.313 860.697 -309.951 898.268 -309.956L898.305 -171.559L898.328 -133.843C898.335 -128.719 898.635 -117.76 897.886 -113.428L751.729 -113.419C741.557 -128.192 729.768 -148.235 719.918 -163.724C719.626 -147.202 719.858 -130.006 719.851 -113.433L606.147 -113.423L606.134 -309.911Z" fill="var(--fill-0, #FF5D00)"/>
<path id="Vector_2" d="M0.554321 -309.909L113.877 -309.928L113.854 -262.292C122.922 -278.102 131.879 -293.975 140.727 -309.909C187.336 -310.537 236.474 -310.114 283.11 -309.877L207.735 -221.165C220.396 -201.403 237.286 -178.406 250.877 -158.799C259.143 -148.322 274.258 -125.1 282.354 -113.413L141.851 -113.376C132.619 -128.312 123.28 -143.181 113.834 -157.983L113.879 -113.435L0.575817 -113.426L0.554321 -309.909Z" fill="var(--fill-0, #FF5D00)"/>
<path id="Vector_3" d="M372.009 -309.934L517.942 -309.964C527.492 -290.369 538.982 -261.339 547.888 -240.57L602.286 -113.431L497.675 -113.428L483.725 -113.423L477.439 -133.592L411.837 -133.583L405.53 -113.433L287.08 -113.427C313.967 -178.472 344.116 -244.978 372.009 -309.934Z" fill="var(--fill-0, #FF5D00)"/>
<path id="Vector_4" d="M444.406 -234.227C446.608 -231.569 454.634 -204.314 456.138 -199.388L446.644 -199.367L433.087 -199.346L444.406 -234.227Z" fill="var(--fill-0, #181818)"/>
<path id="Vector_5" d="M1237.63 -309.922L1468.65 -309.949L1468.64 -250.563L1345.16 -250.564L1345.2 -241.12L1468.66 -241.14L1468.64 -182.135L1400.25 -182.147L1345.23 -182.151L1345.17 -172.771L1468.66 -172.782L1468.64 -113.433L1237.69 -113.427L1237.63 -309.922Z" fill="var(--fill-0, #FF5D00)"/>
<path id="Vector_6" d="M903.009 -309.903L1042.2 -309.959L1068.46 -280.983L1093.91 -309.876C1138.49 -310.991 1188.09 -310.066 1233.07 -309.883L1152.25 -221.051C1143.2 -211.126 1133.8 -201.029 1125.02 -190.908V-113.431L1011.31 -113.429L1011.3 -190.713C1002.63 -201.629 986.001 -218.767 976.241 -229.487L903.009 -309.903Z" fill="var(--fill-0, #FF5D00)"/>
<path id="Vector_7" d="M1160.82 -0.0231042L1173.47 -0.00436858L1173.49 82.5355L1157.81 82.648L1157.74 40.8559C1151.08 52.4224 1142.79 70.3125 1136.77 82.5805L1124.1 82.6345L1124.16 -0.0275879L1139.57 -0.00812027L1139.63 42.4301C1146.36 28.3712 1153.83 13.9616 1160.82 -0.0231042Z" fill="var(--fill-0, #FF5D00)"/>
<path id="Vector_8" d="M576.62 -0.0223389L589.03 -0.0133485C592.758 6.43626 597.654 17.0799 601.131 24.0258C605.159 16.044 609.144 8.04042 613.086 0.0158872L625.621 -0.00584515L625.594 82.5753L610.251 82.6308L610.232 63.1575C610.275 55.7079 610.21 48.2583 610.036 40.811L601.194 58.2491C598.44 53.5648 595.103 46.3798 592.308 41.2083C591.771 54.2319 592.128 69.4077 592.138 82.5918L576.574 82.6495L576.62 -0.0223389Z" fill="var(--fill-0, #FF5D00)"/>
<path id="Vector_9" d="M380.448 -0.0215615L392.777 0.00392259L392.736 82.5431L377.433 82.6323L377.365 40.6791C370.246 54.3841 363.325 68.7068 356.428 82.5611L344.1 82.6285L344.111 -0.0230713L359.254 0.012158L359.332 41.8754C366.337 29.0564 373.771 13.242 380.448 -0.0215615Z" fill="var(--fill-0, #FF5D00)"/>
<path id="Vector_10" d="M558.414 -0.0253296L570.716 -0.00883587L570.699 82.5543L555.6 82.6397C555.639 68.6191 555.588 54.5992 555.45 40.5793C548.112 53.6712 541.431 68.9827 534.075 82.5678L521.948 82.6345C521.914 55.1562 521.709 27.4455 522.018 -0.0125876L537.487 -0.00734892C537.517 13.9196 537.721 28.3458 537.279 42.2187L558.414 -0.0253296Z" fill="var(--fill-0, #FF5D00)"/>
<path id="Vector_11" d="M1069.68 -0.0245361L1085.33 0.00694148V33.4949L1103.42 33.4993L1103.45 -0.0155458L1119.02 0.0114252L1119.05 82.5746L1103.46 82.636L1103.44 49.1234L1085.33 49.1361V82.5836L1069.65 82.6458L1069.68 -0.0245361Z" fill="var(--fill-0, #FF5D00)"/>
<path id="Vector_12" d="M1015.52 -0.0163574L1064.47 -0.0118508L1064.45 15.4465L1031.05 15.4488L1031.06 33.4933L1064.47 33.506L1064.45 49.0919L1031.03 49.1226L1031.05 67.1117L1064.46 67.0756V82.579L1015.48 82.6405L1015.52 -0.0163574Z" fill="var(--fill-0, #FF5D00)"/>
<path id="Vector_13" d="M686.118 -0.026123L734.988 0.000870833L735.018 15.433L701.709 15.4577L701.703 33.4925L734.996 33.5105L735.018 49.0791L701.697 49.1458L701.686 67.0981L734.981 67.1079L735.011 82.5902L686.079 82.6412L686.118 -0.026123Z" fill="var(--fill-0, #FF5D00)"/>
<path id="Vector_14" d="M898.56 -0.0185547L913.99 0.0211583C914.297 27.3623 914.043 55.1982 914.065 82.5813L898.59 82.6383L898.583 49.1219L880.336 49.1361L880.344 82.597L864.959 82.639L865.011 -0.0125611L880.329 0.00768428L880.344 33.4941L898.538 33.5008L898.56 -0.0185547Z" fill="var(--fill-0, #FF5D00)"/>
<path id="Vector_15" d="M1178.83 -0.0238037L1227.67 -0.00280339L1227.65 15.4481L1193.95 15.4526L1193.96 33.4949L1227.67 33.5091L1227.65 49.1009L1193.95 49.1129L1193.96 67.1155L1227.67 67.0825L1227.65 82.5693L1178.75 82.6495L1178.83 -0.0238037Z" fill="var(--fill-0, #FF5D00)"/>
<path id="Vector_16" d="M631.499 -0.0268555L680.179 0.00313519L680.191 15.451L646.653 15.4608L646.632 33.4805L680.192 33.5046L680.202 49.1054L646.631 49.1833L646.603 67.0681L680.194 67.0876L680.198 82.5918L631.484 82.6465L631.499 -0.0268555Z" fill="var(--fill-0, #FF5D00)"/>
<path id="Vector_17" d="M448.244 0.0278931L463.624 0.0338866L463.607 33.4843C471.435 33.3261 478.291 33.105 485.215 37.4243C500.111 46.7179 500.885 63.0345 489.631 75.6437C478.574 85.5482 463.294 82.729 448.158 82.651C448.876 56.2259 448.23 26.7064 448.244 0.0278931Z" fill="var(--fill-0, #FF5D00)"/>
<path id="Vector_18" d="M463.608 49.0791C473.555 48.6915 488.253 50.3129 479.225 64.4797C473.868 68.0471 470.072 67.2083 463.6 67.1199L463.608 49.0791Z" fill="var(--fill-0, #181818)"/>
<path id="Vector_19" d="M834.931 0.0796077C841.013 0.0413778 846.031 1.09758 851.109 4.60799C856.323 8.26007 859.858 13.8461 860.929 20.1218C862.42 28.5639 859.776 34.5195 855.094 41.2075C862.719 52.2372 864.427 64.8906 854.255 75.0762C849.552 79.8347 843.14 82.5131 836.444 82.5168C830.01 82.5116 823.845 79.9292 819.321 75.3446C812.535 68.4002 812.048 60.9881 812.115 51.9981L827.74 52.0026C826.856 75.3873 845.791 67.1364 845.791 57.007C845.799 55.1239 845.035 53.3197 843.687 52.0101C839.897 48.3498 835.507 48.9142 830.601 49.0109L830.594 33.5143C867.116 34.584 827.073 -5.84753 827.725 30.6261L812.115 30.6396C811.988 13.7464 817.021 2.82392 834.931 0.0796077Z" fill="var(--fill-0, #FF5D00)"/>
<path id="Vector_20" d="M938.019 -0.0321045L950.213 -0.0313496L970.496 82.5932L954.347 82.6412C953.913 79.7462 953.98 75.8857 951.344 74.5252L935.802 74.5178L933.48 82.5805L917.623 82.645L938.019 -0.0321045Z" fill="var(--fill-0, #FF5D00)"/>
<path id="Vector_21" d="M944.026 41.5898C945.696 43.5358 948.318 55.9313 947.786 58.4769L946.093 59.315L941.629 58.9222L940.535 57.5347C939.921 52.4269 942.408 46.7366 944.026 41.5898Z" fill="var(--fill-0, #181818)"/>
<path id="Vector_22" d="M260.176 0.70024C262.241 0.457368 264.318 0.335938 266.397 0.335938C284.554 0.346432 290.713 14.8003 290.508 30.623L274.922 30.6403C274.961 26.9102 275.478 21.2537 272.752 18.6106C264.314 9.35295 256.004 20.181 256.63 29.2408C257.343 39.5561 253.719 56.4432 260.634 65.1049C263.736 68.9909 269.661 67.0351 272.593 64.1147C275.44 61.2782 274.924 55.7911 274.912 51.9733L290.505 51.9816C290.978 71.6955 277.915 88.6051 255.971 80.9471C238.534 74.8625 241.322 46.8243 241.28 32.2339C241.236 16.7298 243.888 6.53892 260.176 0.70024Z" fill="var(--fill-0, #FF5D00)"/>
<path id="Vector_23" d="M414.555 -0.0290913L426.391 -0.0298462C433.772 26.5137 439.87 55.5295 446.951 82.5243L430.999 82.6577C427.836 70.2435 424.786 57.8001 421.848 45.3303L420.688 42.2292C419.144 43.5215 411.207 77.7268 410.014 82.5925L394.024 82.603C401.444 57.9379 407.755 25.7499 414.555 -0.0290913Z" fill="var(--fill-0, #FF5D00)"/>
<path id="Vector_24" d="M961.036 -0.0200806L976.429 0.00165179C976.541 4.74816 976.451 10.3657 976.211 15.0627C975.335 31.9461 979.35 33.8591 994.66 33.4986L994.72 -0.0118223L1010.03 0.00915518L1010.04 48.915L1010.07 82.5918L994.72 82.6413L994.712 49.1323C993.027 49.1488 991.342 49.1533 989.649 49.1458C957.066 48.9629 960.722 23.8406 961.036 -0.0200806Z" fill="var(--fill-0, #FF5D00)"/>
<path id="Vector_25" d="M740.044 -0.0321045L788.768 0.00387972L788.746 15.4398L772.185 15.4578L772.2 66.1559L772.192 82.5925L756.545 82.6292L756.553 15.4563L739.984 15.4675L740.044 -0.0321045Z" fill="var(--fill-0, #FF5D00)"/>
<path id="Vector_26" d="M290.252 -0.00732422L338.962 -0.00505948L338.931 15.4518L322.422 15.4556L322.455 65.4063L322.434 82.5933L306.878 82.648C306.616 60.4267 306.858 37.7084 306.867 15.4488L290.301 15.4653L290.252 -0.00732422Z" fill="var(--fill-0, #FF5D00)"/>
<path id="Vector_27" d="M1289.92 -0.020874L1305.68 0.0143782C1305.26 13.4353 1303.86 26.6854 1303.15 40.0988L1302.78 40.5583C1300.87 41.5808 1295.51 41.2112 1293.06 41.1783C1291.93 27.3615 1291.25 13.8289 1289.92 -0.020874Z" fill="var(--fill-0, #FF5D00)"/>
<path id="Vector_28" d="M203.161 -0.0335693L218.752 0.00392471C218.63 13.0995 216.586 26.5722 216.319 40.0929L215.929 40.5456C214.038 41.5531 208.644 41.194 206.209 41.1648L203.161 -0.0335693Z" fill="var(--fill-0, #FF5D00)"/>
<path id="Vector_29" d="M1270.21 -0.0305786L1285.81 -0.00134287C1285.02 13.1737 1284.13 26.3428 1283.15 39.5044L1282.76 40.5509C1280.7 41.6243 1276.01 41.2307 1273.45 41.1775C1271.77 28.2041 1271.18 13.2172 1270.21 -0.0305786Z" fill="var(--fill-0, #FF5D00)"/>
<path id="Vector_30" d="M1250.23 -0.020874L1265.85 -0.00138353C1265.51 13.4083 1263.65 26.4964 1263.39 40.0823C1261.96 41.7877 1255.63 41.209 1253.28 41.176C1252.2 27.4185 1251.41 13.7486 1250.23 -0.020874Z" fill="var(--fill-0, #FF5D00)"/>
<path id="Vector_31" d="M163.471 -0.0125732L178.99 -0.00134104C178.467 13.4743 176.916 26.5789 176.481 40.0651L176.121 40.5164C173.976 41.5853 169.017 41.2075 166.38 41.1648C165.976 28.5669 164.404 12.775 163.471 -0.0125732Z" fill="var(--fill-0, #FF5D00)"/>
<path id="Vector_32" d="M183.403 -0.0185547L198.841 -0.00206097C198.476 12.742 197.098 27.2761 196.218 40.1716C194.766 41.7285 188.832 41.197 186.563 41.164C184.995 27.9207 184.225 13.2945 183.403 -0.0185547Z" fill="var(--fill-0, #FF5D00)"/>
</g>
<defs>
<clipPath id="clip0_0_335">
<rect width="1469" height="84" fill="white"/>
</clipPath>
</defs>
</svg>
