<svg width="100" height="100" viewBox="0 0 100 100" fill="none" xmlns="http://www.w3.org/2000/svg">
<rect width="100" height="100" fill="#FF5D00"/>
<path d="M61.6909 29.0097L77.4504 29.045C77.0384 42.4659 75.6303 55.7159 74.9187 69.1294L74.5517 69.5889C72.6417 70.6114 67.2862 70.2418 64.8294 70.2088C63.7058 56.3921 63.0242 42.8594 61.6909 29.0097Z" fill="#181818"/>
<path d="M41.9839 29L57.5785 29.0292C56.792 42.2043 55.9083 55.3734 54.927 68.535L54.5375 69.5814C52.4777 70.6549 47.7813 70.2613 45.2271 70.2081C43.5418 57.2347 42.9501 42.2478 41.9839 29Z" fill="#181818"/>
<path d="M22 29.0097L37.6246 29.0292C37.2801 42.4389 35.4226 55.527 35.1679 69.1129C33.7373 70.8182 27.408 70.2396 25.0561 70.2066C23.97 56.4491 23.1835 42.7792 22 29.0097Z" fill="#181818"/>
</svg>
