<svg xmlns="http://www.w3.org/2000/svg" viewBox="0 0 24 24" fill="none">
  <path d="M22.97 7.094c.15-.508 0-.882-.723-.882h-2.39c-.607 0-.887.32-1.038.674 0 0-1.21 2.95-2.924 4.866-.554.555-.807.731-1.11.731-.151 0-.37-.176-.37-.684V7.094c0-.608-.175-.882-.68-.882H10.43c-.378 0-.605.281-.605.547 0 .574.858.707.946 2.323v3.508c0 .77-.14.91-.44.91-.807 0-2.769-2.962-3.933-6.351C6.16 6.699 5.934 6.212 5.323 6.212H2.93c-.68 0-.815.32-.815.674 0 .63.807 3.751 3.757 7.882C7.87 17.46 10.503 18.79 12.9 18.79c1.398 0 1.57-.314 1.57-.855V15.8c0-.68.143-.815.624-.815.353 0 .96.177 2.37 1.543C18.93 18 19.21 18.79 20.12 18.79h2.39c.68 0 1.021-.314.826-.935-.215-.618-.986-1.516-2.008-2.58-.554-.655-1.387-1.36-1.64-1.713-.353-.455-.252-.657 0-1.06l.003-.005c0 0 2.899-4.084 3.2-5.472z" fill="#181818"/>
</svg>
